<?xml version="1.0" encoding="UTF-8"?>
<svg width="17px" height="16px" viewBox="0 0 17 16" version="1.1" xmlns="http://www.w3.org/2000/svg" xmlns:xlink="http://www.w3.org/1999/xlink">
    <title>UI/Icon/Close Circle</title>
    <defs>
        <path d="M14,6 C9.582,6 6,9.582 6,14 C6,18.418 9.582,22 14,22 C18.418,22 22,18.418 22,14 C22,9.582 18.418,6 14,6 Z M14.9426667,14 C14.9426667,14 17.0353333,16.0926667 17.138,16.1953333 C17.3986667,16.456 17.3986667,16.878 17.138,17.138 C16.8773333,17.3986667 16.4553333,17.3986667 16.1953333,17.138 C16.0926667,17.036 14,14.9426667 14,14.9426667 C14,14.9426667 11.9073333,17.0353333 11.8046667,17.138 C11.544,17.3986667 11.122,17.3986667 10.862,17.138 C10.6013333,16.8773333 10.6013333,16.4553333 10.862,16.1953333 C10.964,16.0926667 13.0573333,14 13.0573333,14 C13.0573333,14 10.9646667,11.9073333 10.862,11.8046667 C10.6013333,11.544 10.6013333,11.122 10.862,10.862 C11.1226667,10.6013333 11.5446667,10.6013333 11.8046667,10.862 C11.9073333,10.964 14,13.0573333 14,13.0573333 C14,13.0573333 16.0926667,10.9646667 16.1953333,10.862 C16.456,10.6013333 16.878,10.6013333 17.138,10.862 C17.3986667,11.1226667 17.3986667,11.5446667 17.138,11.8046667 C17.036,11.9073333 14.9426667,14 14.9426667,14 Z" id="path-1"></path>
    </defs>
    <g id="Page-1" stroke="none" stroke-width="1" fill="none" fill-rule="evenodd">
        <g id="Mobile-Copy" transform="translate(-359.000000, -772.000000)">
            <g id="Group" transform="translate(353.500000, 766.000000)">
                <g id="Close-Circle" transform="translate(-6756.000000, -2180.000000)">
                    <mask id="mask-2" fill="white">
                        <use xlink:href="#path-1"></use>
                    </mask>
                    <use fill="#000000" fill-rule="nonzero" xlink:href="#path-1"></use>
                    <g id="Group" mask="url(#mask-2)">
                        <g transform="translate(-14.000000, -14.000000)" id="Color">
                            <rect id="Rectangle-5" fill="#404040" x="0" y="0" width="56" height="56"></rect>
                        </g>
                    </g>
                </g>
            </g>
        </g>
    </g>
</svg>